<?xml version="1.0" encoding="utf-8"?>
<!-- Generator: Adobe Illustrator 21.1.0, SVG Export Plug-In . SVG Version: 6.00 Build 0)  -->
<svg version="1.1" id="Layer_1" xmlns="http://www.w3.org/2000/svg" xmlns:xlink="http://www.w3.org/1999/xlink" x="0px" y="0px"
	 viewBox="0 0 16 16" style="enable-background:new 0 0 16 16;" xml:space="preserve">
<style type="text/css">
	.st0{fill:#447E9B;}
</style>
<g>
	<g id="icon">
		<path class="st0" d="M1.7,14.9h2.6v-2.6H1.7V14.9z M4.9,14.9h2.9v-2.6H4.9V14.9z M1.7,11.7h2.6V8.9H1.7V11.7z M4.9,11.7h2.9V8.9
			H4.9V11.7z M1.7,8.3h2.6V5.7H1.7V8.3z M8.3,14.9h2.9v-2.6H8.3V14.9z M4.9,8.3h2.9V5.7H4.9V8.3z M11.7,14.9h2.6v-2.6h-2.6V14.9z
			 M8.3,11.7h2.9V8.9H8.3V11.7z M5.1,4V1.4c0-0.1,0-0.1-0.1-0.2C5,1.2,4.9,1.1,4.9,1.1H4.3c-0.1,0-0.1,0-0.2,0.1C4,1.3,4,1.4,4,1.4
			V4c0,0.1,0,0.1,0.1,0.2c0.1,0.1,0.1,0.1,0.2,0.1h0.6c0.1,0,0.1,0,0.2-0.1C5.1,4.1,5.1,4.1,5.1,4z M11.7,11.7h2.6V8.9h-2.6V11.7z
			 M8.3,8.3h2.9V5.7H8.3V8.3z M11.7,8.3h2.6V5.7h-2.6V8.3z M12,4V1.4c0-0.1,0-0.1-0.1-0.2c-0.1-0.1-0.1-0.1-0.2-0.1h-0.6
			c-0.1,0-0.1,0-0.2,0.1c-0.1,0.1-0.1,0.1-0.1,0.2V4c0,0.1,0,0.1,0.1,0.2c0.1,0.1,0.1,0.1,0.2,0.1h0.6c0.1,0,0.1,0,0.2-0.1
			C12,4.1,12,4.1,12,4z M15.4,3.4v11.4c0,0.3-0.1,0.6-0.3,0.8c-0.2,0.2-0.5,0.3-0.8,0.3H1.7c-0.3,0-0.6-0.1-0.8-0.3
			c-0.2-0.2-0.3-0.5-0.3-0.8V3.4c0-0.3,0.1-0.6,0.3-0.8s0.5-0.3,0.8-0.3h1.1V1.4c0-0.4,0.1-0.7,0.4-1S3.9,0,4.3,0h0.6
			c0.4,0,0.7,0.1,1,0.4s0.4,0.6,0.4,1v0.9h3.4V1.4c0-0.4,0.1-0.7,0.4-1s0.6-0.4,1-0.4h0.6c0.4,0,0.7,0.1,1,0.4s0.4,0.6,0.4,1v0.9
			h1.1c0.3,0,0.6,0.1,0.8,0.3C15.3,2.9,15.4,3.1,15.4,3.4z"/>
	</g>
</g>
</svg>
